<mxfile host="app.diagrams.net" modified="2022-09-21T18:38:56.420Z" agent="5.0 (Windows NT 10.0; Win64; x64) AppleWebKit/537.36 (KHTML, like Gecko) Chrome/105.0.0.0 Safari/537.36" etag="2O8QJiAkD9J_GgWjLgjR" version="20.3.3" type="github">
  <diagram id="MxWM37YsKP7B7DZ2Ysy3" name="PÃ¡gina-1">
    <mxGraphModel dx="1178" dy="638" grid="1" gridSize="10" guides="1" tooltips="1" connect="1" arrows="1" fold="1" page="1" pageScale="1" pageWidth="827" pageHeight="1169" math="0" shadow="0">
      <root>
        <mxCell id="0" />
        <mxCell id="1" parent="0" />
        <mxCell id="XG3i_mVL1QkM81xE1O9n-3" value="" style="edgeStyle=orthogonalEdgeStyle;rounded=0;orthogonalLoop=1;jettySize=auto;html=1;" edge="1" parent="1" source="XG3i_mVL1QkM81xE1O9n-1" target="XG3i_mVL1QkM81xE1O9n-2">
          <mxGeometry relative="1" as="geometry" />
        </mxCell>
        <mxCell id="XG3i_mVL1QkM81xE1O9n-1" value="inicio" style="ellipse;whiteSpace=wrap;html=1;" vertex="1" parent="1">
          <mxGeometry x="340" y="70" width="60" height="40" as="geometry" />
        </mxCell>
        <mxCell id="XG3i_mVL1QkM81xE1O9n-5" value="" style="edgeStyle=orthogonalEdgeStyle;rounded=0;orthogonalLoop=1;jettySize=auto;html=1;" edge="1" parent="1" source="XG3i_mVL1QkM81xE1O9n-2" target="XG3i_mVL1QkM81xE1O9n-4">
          <mxGeometry relative="1" as="geometry" />
        </mxCell>
        <mxCell id="XG3i_mVL1QkM81xE1O9n-2" value="metros&lt;br&gt;yardas" style="whiteSpace=wrap;html=1;" vertex="1" parent="1">
          <mxGeometry x="340" y="130" width="60" height="40" as="geometry" />
        </mxCell>
        <mxCell id="XG3i_mVL1QkM81xE1O9n-7" value="" style="edgeStyle=orthogonalEdgeStyle;rounded=0;orthogonalLoop=1;jettySize=auto;html=1;" edge="1" parent="1" source="XG3i_mVL1QkM81xE1O9n-4" target="XG3i_mVL1QkM81xE1O9n-6">
          <mxGeometry relative="1" as="geometry" />
        </mxCell>
        <mxCell id="XG3i_mVL1QkM81xE1O9n-4" value="&quot;Ingrese metros&quot;" style="shape=document;whiteSpace=wrap;html=1;boundedLbl=1;" vertex="1" parent="1">
          <mxGeometry x="320" y="190" width="100" height="40" as="geometry" />
        </mxCell>
        <mxCell id="XG3i_mVL1QkM81xE1O9n-11" value="" style="edgeStyle=orthogonalEdgeStyle;rounded=0;orthogonalLoop=1;jettySize=auto;html=1;" edge="1" parent="1" source="XG3i_mVL1QkM81xE1O9n-6" target="XG3i_mVL1QkM81xE1O9n-10">
          <mxGeometry relative="1" as="geometry" />
        </mxCell>
        <mxCell id="XG3i_mVL1QkM81xE1O9n-6" value="metros" style="shape=parallelogram;perimeter=parallelogramPerimeter;whiteSpace=wrap;html=1;fixedSize=1;" vertex="1" parent="1">
          <mxGeometry x="330" y="240" width="80" height="20" as="geometry" />
        </mxCell>
        <mxCell id="XG3i_mVL1QkM81xE1O9n-13" value="" style="edgeStyle=orthogonalEdgeStyle;rounded=0;orthogonalLoop=1;jettySize=auto;html=1;" edge="1" parent="1" source="XG3i_mVL1QkM81xE1O9n-10" target="XG3i_mVL1QkM81xE1O9n-12">
          <mxGeometry relative="1" as="geometry" />
        </mxCell>
        <mxCell id="XG3i_mVL1QkM81xE1O9n-10" value="yardas = metros*1.09361" style="shape=parallelogram;perimeter=parallelogramPerimeter;whiteSpace=wrap;html=1;fixedSize=1;" vertex="1" parent="1">
          <mxGeometry x="280" y="280" width="180" height="40" as="geometry" />
        </mxCell>
        <mxCell id="XG3i_mVL1QkM81xE1O9n-15" value="" style="edgeStyle=orthogonalEdgeStyle;rounded=0;orthogonalLoop=1;jettySize=auto;html=1;" edge="1" parent="1" source="XG3i_mVL1QkM81xE1O9n-12" target="XG3i_mVL1QkM81xE1O9n-14">
          <mxGeometry relative="1" as="geometry" />
        </mxCell>
        <mxCell id="XG3i_mVL1QkM81xE1O9n-12" value="metros,&quot; metros son &quot;, yardas,&quot; yardas.&quot;" style="shape=document;whiteSpace=wrap;html=1;boundedLbl=1;" vertex="1" parent="1">
          <mxGeometry x="300" y="340" width="140" height="40" as="geometry" />
        </mxCell>
        <mxCell id="XG3i_mVL1QkM81xE1O9n-14" value="fin" style="ellipse;whiteSpace=wrap;html=1;" vertex="1" parent="1">
          <mxGeometry x="340" y="400" width="60" height="40" as="geometry" />
        </mxCell>
      </root>
    </mxGraphModel>
  </diagram>
</mxfile>
